<?xml version="1.0" encoding="iso-8859-1"?>
<!-- Generator: Adobe Illustrator 19.0.0, SVG Export Plug-In . SVG Version: 6.00 Build 0)  -->
<svg version="1.1" id="Capa_1" xmlns="http://www.w3.org/2000/svg" xmlns:xlink="http://www.w3.org/1999/xlink" x="0px" y="0px"
	 viewBox="0 0 512 512" style="enable-background:new 0 0 512 512;" xml:space="preserve">
<g>
	<g>
		<g>
			<path d="M507.297,145.98c-4.064-5.82-10.432-9.615-17.485-10.419c-29.432-3.561-57.719-13.56-82.85-29.286
				c-4.736-11.128-15.007-18.918-27-20.48c-7.422-6.002-13.415-13.581-17.544-22.187c-3.691-11.48-9.971-21.958-18.355-30.626
				c-0.137-0.171-0.333-0.265-0.478-0.427C330.145,13.329,296.489,0,255.999,0s-74.095,13.312-87.535,32.503
				c-0.077,0.085-0.196,0.137-0.273,0.222c-8.499,8.712-14.861,19.277-18.586,30.865c-0.051,0.162-0.401,0.947-0.444,1.109
				l-0.597,1.434c-0.544,0.666-0.966,1.423-1.246,2.236l-0.469,0.853c-1.095,1.675-2.283,3.288-3.558,4.83
				c-0.486,0.623-1.033,1.323-1.963,2.372c-1.621,2.005-3.635,4.079-5.487,5.973l-2.082,1.911l-1.707,1.545
				c-12.002,1.553-22.284,9.345-27.025,20.48c-7.093,4.42-14.444,8.409-22.016,11.947c-1.237,0.58-2.62,1.237-4.267,1.894h-0.077
				c-5.734,2.543-11.5,4.784-17.297,6.724c-0.162,0.051-0.333,0.094-0.495,0.154c-5.743,1.903-11.503,3.524-17.254,4.821
				c-2.731,0.64-5.453,1.289-8.277,1.792c-4.307,0.814-8.701,1.462-13.184,1.946c-7.035,0.799-13.391,4.573-17.459,10.368
				c-4.282,6.136-5.718,13.817-3.942,21.086C20.59,247.825,97.552,511.386,255.453,512h1.092
				c157.867-0.614,234.863-264.175,254.703-344.96C513.015,159.778,511.576,152.107,507.297,145.98z M375.465,102.4
				c9.426,0,17.067,7.641,17.067,17.067s-7.641,17.067-17.067,17.067s-17.067-7.641-17.067-17.067S366.04,102.4,375.465,102.4z
				 M255.999,17.067c45.227,0,76.8,17.988,76.8,34.133s-31.573,34.133-76.8,34.133c-45.227,0-76.8-17.988-76.8-34.133
				S210.772,17.067,255.999,17.067z M154.299,87.467c0.913-1.016,1.724-2.022,2.278-2.739c1.692-2.058,3.267-4.209,4.719-6.443
				c0.196-0.29,0.614-1.024,0.768-1.331c0.313-0.528,0.597-1.072,0.853-1.63c0.52-0.853,0.976-1.743,1.365-2.662
				c0-0.051,0.358-0.853,0.384-0.853c0.433-0.903,0.801-1.835,1.101-2.79c0.247-0.725,0.546-1.28,0.802-1.971
				c11.989,20.719,46.984,35.354,89.429,35.354s77.44-14.635,89.412-35.354c0.256,0.683,0.555,1.237,0.794,1.954
				c3.01,7.643,7.519,14.606,13.261,20.48c-11.124,5.873-18.099,17.407-18.133,29.986c0,0.427,0.111,0.853,0.128,1.254
				c-17.201-4.863-35.177,4.701-40.755,21.683c-14.235-9.7-33.487-7.15-44.706,5.922c-11.219-13.072-30.471-15.623-44.706-5.922
				c-5.578-16.982-23.554-26.546-40.755-21.683c0-0.427,0.128-0.853,0.128-1.254c-0.044-12.575-7.021-24.1-18.142-29.969
				C153.138,88.806,153.804,88.081,154.299,87.467z M349.866,153.6c0,9.426-7.641,17.067-17.067,17.067
				c-9.426,0-17.067-7.641-17.067-17.067c0-9.426,7.641-17.067,17.067-17.067C342.224,136.533,349.866,144.174,349.866,153.6z
				 M298.665,170.667c0,9.426-7.641,17.067-17.067,17.067c-9.426,0-17.067-7.641-17.067-17.067s7.641-17.067,17.067-17.067
				C291.025,153.6,298.665,161.241,298.665,170.667z M290.132,298.667h-93.082l20.395-25.6h77.107l26.923,33.792l-64.563,67.49
				c-0.32,0.369-0.605,0.766-0.853,1.186c-0.28-0.423-0.597-0.82-0.947-1.186l-56.098-58.615h91.119c4.713,0,8.533-3.82,8.533-8.533
				S294.845,298.667,290.132,298.667z M264.532,256h-17.067v-17.067c0-4.713,3.82-8.533,8.533-8.533c4.713,0,8.533,3.82,8.533,8.533
				V256z M247.465,170.667c0,9.426-7.641,17.067-17.067,17.067s-17.067-7.641-17.067-17.067s7.641-17.067,17.067-17.067
				S247.465,161.241,247.465,170.667z M196.265,153.6c0,9.426-7.641,17.067-17.067,17.067s-17.067-7.641-17.067-17.067
				c0-9.426,7.641-17.067,17.067-17.067S196.265,144.174,196.265,153.6z M120.319,114.347v-0.06
				c2.25-7.063,8.801-11.866,16.213-11.887c7.563-0.13,14.341,4.646,16.765,11.812c2.423,7.165-0.066,15.075-6.155,19.562
				c-6.089,4.487-14.381,4.521-20.507,0.084C120.508,129.421,117.955,121.532,120.319,114.347z M494.668,163.004
				c-19.089,77.722-92.655,331.366-238.191,331.93v0.196c-0.314-0.087-0.633-0.152-0.956-0.196
				C109.985,494.37,36.419,240.725,17.339,163.029c-0.615-2.494-0.131-5.132,1.331-7.245c1.237-1.812,3.197-3.001,5.376-3.26
				c4.924-0.538,9.745-1.246,14.387-2.125c3.038-0.538,6.084-1.246,9.097-1.954c3.251-0.734,6.511-1.57,9.771-2.483
				c2.108-0.589,4.156-1.254,6.221-1.903c1.195-0.384,2.398-0.734,3.601-1.135c0.41-0.145,0.853-0.256,1.263-0.401
				c1.51-0.529,3.012-1.126,4.523-1.707c1.237-0.452,2.483-0.853,3.712-1.374c3.063-1.169,6.118-2.423,8.661-3.593
				c1.707-0.657,3.413-1.485,5.12-2.27c4.454-2.074,8.755-4.267,12.919-6.545c3.528,15.512,17.303,26.531,33.212,26.564
				c2.929-0.041,5.841-0.462,8.661-1.254c0,0.427-0.128,0.853-0.128,1.254c0.008,12.621,6.981,24.208,18.129,30.126
				c11.148,5.918,24.652,5.201,35.111-1.864c3.247,9.649,10.684,17.312,20.232,20.845s20.182,2.559,28.928-2.652v14.848
				c-10.192,3.603-17.022,13.22-17.067,24.03V256h-17.067c-2.598,0.001-5.054,1.185-6.673,3.217l-33.348,41.813
				c-0.182,0.201-0.353,0.411-0.512,0.632l-0.273,0.35c-0.077,0.094-0.094,0.205-0.162,0.307c-0.493,0.658-0.884,1.385-1.161,2.159
				c-0.143,0.491-0.243,0.994-0.299,1.502c-0.112,0.4-0.192,0.808-0.239,1.22c0,0.085,0.051,0.162,0.051,0.247
				c-0.001,2.164,0.827,4.246,2.313,5.82l69.316,72.439c3.221,4.324,8.296,6.872,13.687,6.872c5.392,0,10.467-2.548,13.688-6.872
				l69.282-72.422c2.948-3.086,3.163-7.875,0.503-11.213l-34.133-42.837c-1.623-2.048-4.094-3.24-6.707-3.234h-17.067v-17.067
				c-0.045-10.81-6.875-20.427-17.067-24.03v-14.848c8.746,5.211,19.38,6.186,28.928,2.652s16.985-11.196,20.232-20.845
				c10.459,7.065,23.963,7.782,35.111,1.864s18.12-17.505,18.129-30.126c0-0.427-0.111-0.853-0.128-1.254
				c2.82,0.792,5.732,1.214,8.661,1.254c15.922-0.028,29.71-11.061,33.229-26.59c24.519,13.539,51.428,22.204,79.241,25.515
				c2.185,0.255,4.151,1.444,5.393,3.26C494.785,157.889,495.273,160.516,494.668,163.004z"/>
			<path d="M68.786,219.255c-0.784-3.077-3.211-5.465-6.301-6.197c-3.09-0.732-6.331,0.312-8.412,2.71
				c-2.081,2.398-2.659,5.754-1.5,8.71h-0.034c13.545,43.427,30.946,85.556,51.994,125.884c2.258,4.087,7.381,5.6,11.497,3.396
				s5.697-7.307,3.547-11.451C99.019,302.882,82.022,261.702,68.786,219.255z"/>
			<path d="M57.796,191.899c1.106-1.975,1.382-4.308,0.767-6.486c-1.289-4.54-2.466-8.815-3.524-12.8
				c-0.79-2.945-3.09-5.245-6.036-6.034c-2.945-0.789-6.088,0.054-8.243,2.21c-2.156,2.156-2.997,5.299-2.208,8.244
				c1.092,4.045,2.287,8.397,3.593,13.022c1.038,3.671,4.386,6.207,8.201,6.212c0.785,0.001,1.566-0.108,2.321-0.324
				C54.845,195.328,56.69,193.873,57.796,191.899z"/>
		</g>
	</g>
</g>
<g>
</g>
<g>
</g>
<g>
</g>
<g>
</g>
<g>
</g>
<g>
</g>
<g>
</g>
<g>
</g>
<g>
</g>
<g>
</g>
<g>
</g>
<g>
</g>
<g>
</g>
<g>
</g>
<g>
</g>
</svg>
