<svg xmlns="http://www.w3.org/2000/svg" viewBox="0 0 20 20"><defs><clipPath id="a"><path d="M0 0h20v20H0z"/></clipPath></defs><g data-name="custom – 1"><g data-name="Group 1" clip-path="url(#a)"><path data-name="Path 1" d="M15.392.692h.254v.254a.1185.1185 0 1 0 .237 0V.692h.255a.119.119 0 0 0 0-.237h-.255v-.25a.1185.1185 0 1 0-.237 0v.254h-.254a.119.119 0 0 0 0 .237z"/><path data-name="Path 2" d="M2.917 1.359h.254v.254a.1185.1185 0 0 0 .237 0v-.254h.255a.119.119 0 0 0 0-.237h-.255V.868a.1185.1185 0 0 0-.237 0v.254h-.254a.119.119 0 0 0 0 .237z"/><path data-name="Path 3" d="M3.626 4.769a.118.118 0 0 0 .119.119h.254v.254a.1185.1185 0 1 0 .237 0v-.255h.255a.1185.1185 0 0 0 0-.237h-.255v-.253a.1185.1185 0 1 0-.237 0v.254h-.254a.118.118 0 0 0-.119.118z"/><path data-name="Path 4" d="M20.257 10.304h-.255v-.254a.1185.1185 0 1 0-.237 0v.254h-.254a.1185.1185 0 1 0 0 .237h.254v.254a.1185.1185 0 1 0 .237 0v-.254h.255a.1185.1185 0 1 0 0-.237z"/><path data-name="Path 5" d="M1.239 10.658H.984v-.254a.1185.1185 0 0 0-.237 0v.254H.493a.1185.1185 0 1 0 0 .237h.254v.255a.1185.1185 0 0 0 .237 0v-.255h.255a.1185.1185 0 0 0 0-.237z"/><path data-name="Path 6" d="M16.591 4.731a.45.45 0 0 0 .193.047.653.653 0 0 0 .413-.212c.157-.138.294-.257.544-.172a.11827088.11827088 0 1 0 .076-.224.721.721 0 0 0-.775.217c-.162.142-.229.186-.349.129a.12.12 0 0 0-.158.056.118.118 0 0 0 .056.159z"/><path data-name="Path 7" d="M10.677 1.37a.118.118 0 0 0 .118.105h.013a.118.118 0 0 0 .1-.13 1.038 1.038 0 0 1 .137-.643.561.561 0 0 0 .365.282.348.348 0 0 0 .377-.138.362.362 0 0 0 0-.4A.462.462 0 0 0 11.26.3a.687.687 0 0 0-.1.032 1.433 1.433 0 0 1-.039-.222.122.122 0 0 0-.125-.11.118.118 0 0 0-.111.125 1.607 1.607 0 0 0 .066.339 1.141 1.141 0 0 0-.274.906zm.636-.84c.134-.031.235-.013.279.049a.125.125 0 0 1 0 .136.116.116 0 0 1-.131.038.354.354 0 0 1-.227-.2.459.459 0 0 1 .079-.023z"/><path data-name="Path 8" d="M15.297 5.305a2.177 2.177 0 0 0 .247-2.257 2.133 2.133 0 0 0-1.943-1.205 2.729 2.729 0 0 0-1.449.446 4.186 4.186 0 0 0-1.744 2.821 3.905 3.905 0 0 0-1.665-2.775 2.637 2.637 0 0 0-1.377-.409 2.3 2.3 0 0 0-2.049 1.28 2.154 2.154 0 0 0 .2 2.228 2.459 2.459 0 0 0 .784.7H1.91v2.765h.84v11.1h15.287v-11.1h.9V6.135h-4.635a2.783 2.783 0 0 0 .995-.83zm-3.021-2.8a2.5 2.5 0 0 1 1.326-.411 1.894 1.894 0 0 1 1.726 1.067 1.815 1.815 0 0 1 .179.711 1.272 1.272 0 0 0-.35-.411 2.839 2.839 0 0 0-3.071.1 3.815 3.815 0 0 0-1.428 1.582 3.943 3.943 0 0 1 1.618-2.637zm-1.76 3.835a3.767 3.767 0 0 1 1.693-2.565 2.581 2.581 0 0 1 2.8-.113.938.938 0 0 1 .35 1.022 2.332 2.332 0 0 1-.258.469c-.851 1.194-2.994 1.4-4.1 1.423a4.772 4.772 0 0 0-.494-.008c.005-.059.006-.136.009-.227zm5.358 2.657l-.073.4.653.268c-.49.3-1.787.945-2.79.24a3.5 3.5 0 0 1-1.122-1.632 3.481 3.481 0 0 0-.848-1.361 3.27 3.27 0 0 1 1.544 1.249 5.836 5.836 0 0 0 .742.8 1.662 1.662 0 0 0 1.894.037zm-1.536-.1h.127l.079.084a1.124 1.124 0 0 1-.206-.081zm.469 0h.693a1.737 1.737 0 0 1-.569.129zm-2.166.166l-.144-.15h.068c.024.053.049.103.075.153zm-.305-.655h-1.044V6.94a2.663 2.663 0 0 1 1.028 1.437zM5.711 5.283a1.9 1.9 0 0 1-.177-1.964 2.052 2.052 0 0 1 1.833-1.143 2.409 2.409 0 0 1 1.255.375 2.572 2.572 0 0 1 .227.159 1.716 1.716 0 0 0-1.676.343 2.008 2.008 0 0 0-.346 2.648 2.151 2.151 0 0 0 .657.631A3.048 3.048 0 0 1 5.71 5.286zm-2.96 3.14h-.386V6.608h5.143a7.911 7.911 0 0 0 1.031.178 3.406 3.406 0 0 0-1.626 1.64h-.34v-.015H2.75zm3.164 1.807a1.5 1.5 0 0 1-1.408.6L3.238 9.506v-.6h1.417zm-.921-1.317h1.578v-.016h.1l-.082.167a8.634 8.634 0 0 1-.523.965zm1.807.266c.505-1.029 1.027-2.094 2.435-2.342h.054c-1.1.523-1.466 1.7-1.793 2.786-.466 1.544-.869 2.884-3.079 2.523l.443-.562-.5-.513c1.421.182 1.917-.825 2.439-1.889zM3.234 19.495v-2.359l2.262 2.359zm2.6 0l-2.6-2.717v-2.066l4.587 4.784zm3.656 0H8.158l-4.929-5.14v-2.068l6.26 6.529v.679zm0-1.036l-6.255-6.528v-2.07l.867.9-.07-.014-.42-.106.923.957-.564.717.2.04a4.683 4.683 0 0 0 .913.1 2.853 2.853 0 0 0 .585-.058l3.826 3.991zm0-2.423l-3.554-3.707a2.074 2.074 0 0 0 1.107-.913l2.446 2.552zm0-2.425l-2.318-2.418a8.609 8.609 0 0 0 .551-1.491l1.766 1.844v2.065zm0-2.424L7.806 9.428c.054-.174.108-.344.167-.512H9.49zm0-2.775H8.175a2.451 2.451 0 0 1 1.318-1.4zM8.5 6.527a2.624 2.624 0 0 1-1.478-.963 1.733 1.733 0 0 1 .3-2.312 1.527 1.527 0 0 1 2.2.2 5.787 5.787 0 0 1 .736 3.129c-.111.007-.305.014-.551.014a10.387 10.387 0 0 1-1.203-.069zm2.547 12.97H9.736V6.934a3.1 3.1 0 0 1 .674-.108c.045 0 .17.007.358.007h.283zm.242 0v-1.723l1.65 1.721zm1.992 0l-1.992-2.078V15.35l3.974 4.145zm4.268 0h-1.94l-4.312-4.5v-2.071l6.26 6.529zm0-.4l-6.26-6.529v-2.067l6.26 6.529v2.067zm0-2.424l-6.26-6.529V8.916h.869l5.4 5.631v2.127zm0-2.484l-3.753-3.914a2.059 2.059 0 0 0 .916.206 3.12 3.12 0 0 0 1.065-.208l1.772 1.85v2.067zm0-2.424l-1.525-1.593a4.308 4.308 0 0 0 .764-.429l.184-.134-.9-.37.06-.324h1.417v2.846zm.934-5.158v1.818h-.449v-.014h-1.963v.015h-2.286c-.122-.134-.24-.278-.363-.427a3.916 3.916 0 0 0-1.408-1.238 8.876 8.876 0 0 0 .938-.156z"/></g></g></svg>