<svg height="512pt" viewBox="-68 0 512 512.02669" width="512pt" xmlns="http://www.w3.org/2000/svg"><path d="m24.027344 150.9375c2.195312.554688 4.523437.207031 6.460937-.964844l12.433594-7.441406v190.292969c.332031 14.433593 12.273437 25.882812 26.707031 25.601562h58.625v26.808594c-15.023437 3.882813-25.542968 17.40625-25.597656 32.921875 0 3.152344 0 12.742188 18.96875 49.496094 2.929688 5.671875 8.777344 9.234375 15.164062 9.234375 6.382813 0 12.234376-3.5625 15.164063-9.234375 18.96875-36.753906 18.96875-46.34375 18.96875-49.496094-.058594-15.515625-10.578125-29.039062-25.601563-32.921875v-26.808594h85.335938v61.949219c-15.027344 3.878906-25.542969 17.40625-25.601562 32.921875 0 3.148437 0 12.734375 18.96875 49.496094 2.929687 5.671875 8.78125 9.234375 15.164062 9.234375s12.234375-3.5625 15.164062-9.234375c18.96875-36.761719 18.96875-46.347657 18.96875-49.496094-.058593-15.515625-10.574218-29.042969-25.597656-32.921875v-61.949219h58.621094c14.4375.28125 26.378906-11.167969 26.710938-25.601562v-190.292969l12.425781 7.449219c1.9375 1.164062 4.261719 1.511719 6.457031.960937 2.195312-.546875 4.085938-1.945312 5.25-3.886718l17.570312-29.269532c1.164063-1.941406 1.511719-4.265625.964844-6.460937-.542968-2.195313-1.941406-4.085938-3.882812-5.246094l-170.667969-102.402344c-8.097656-4.902343-18.246094-4.902343-26.34375 0l-170.664063 102.402344c-1.945312 1.160156-3.34375 3.046875-3.894531 5.246094-.550781 2.195312-.207031 4.519531.957031 6.460937l17.554688 29.261719c1.164062 1.941406 3.050781 3.339844 5.246094 3.890625zm129.828125 267.21875c0 1.433594-.855469 10.191406-17.066407 41.652344-16.214843-31.460938-17.066406-40.21875-17.066406-41.652344 0-9.425781 7.640625-17.066406 17.066406-17.066406 9.425782 0 17.066407 7.640625 17.066407 17.066406zm102.398437 35.140625c0 1.433594-.851562 10.191406-17.066406 41.644531-16.214844-31.453125-17.066406-40.210937-17.066406-41.644531 0-9.425781 7.640625-17.066406 17.066406-17.066406s17.066406 7.640625 17.066406 17.066406zm59.734375-120.472656c-.390625 4.976562-4.65625 8.75-9.644531 8.535156h-236.714844c-4.988281.214844-9.25-3.558594-9.640625-8.535156v-200.53125l128-76.800781 128 76.800781zm-132.378906-314.519531c2.695313-1.636719 6.070313-1.636719 8.765625 0l163.351562 98.011718-8.78125 14.636719-154.5625-92.742187c-2.703124-1.625-6.085937-1.625-8.789062 0l-154.566406 92.742187-8.78125-14.636719zm0 0"/><path d="m77.054688 213.359375c0 61.265625 49.667968 110.933594 110.933593 110.933594s110.933594-49.667969 110.933594-110.933594c0-61.269531-49.667969-110.933594-110.933594-110.933594-61.238281.070313-110.863281 49.695313-110.933593 110.933594zm204.800781 0c0 51.839844-42.027344 93.863281-93.867188 93.863281-51.839843 0-93.867187-42.023437-93.867187-93.863281 0-51.84375 42.027344-93.867187 93.867187-93.867187 51.816407.058593 93.804688 42.050781 93.867188 93.867187zm0 0"/><path d="m184.746094 128.707031c-2.144532.777344-3.832032 2.464844-4.609375 4.609375-1.523438 3.570313-.4375 7.722656 2.632812 10.097656 3.074219 2.371094 7.363281 2.371094 10.4375 0 3.070313-2.375 4.152344-6.527343 2.632813-10.097656-.777344-2.144531-2.464844-3.832031-4.609375-4.609375-2.058594-.9375-4.425781-.9375-6.484375 0zm0 0"/><path d="m194.046875 284.125c-.816406-.773438-1.773437-1.378906-2.816406-1.792969-2.058594-.945312-4.425781-.945312-6.484375 0-1.046875.414063-2 1.019531-2.816406 1.792969-.773438.8125-1.382813 1.769531-1.792969 2.816406-1.523438 3.570313-.4375 7.722656 2.632812 10.097656 3.074219 2.375 7.363281 2.375 10.4375 0 3.070313-2.375 4.152344-6.527343 2.632813-10.097656-.410156-1.046875-1.019532-2.003906-1.792969-2.816406zm0 0"/><path d="m147.367188 155.125c3.933593 1.046875 8.054687-.824219 9.851562-4.472656 1.796875-3.648438.773438-8.058594-2.453125-10.535156-1.738281-1.476563-4.046875-2.101563-6.296875-1.707032-2.25.21875-4.296875 1.402344-5.613281 3.242188-.699219.878906-1.222657 1.882812-1.546875 2.960937-.257813 1.09375-.304688 2.226563-.144532 3.335938.136719 1.109375.488282 2.175781 1.035157 3.148437 1.113281 1.984375 2.976562 3.433594 5.167969 4.027344zm0 0"/><path d="m231.574219 273.160156c-.875-.703125-1.882813-1.226562-2.960938-1.546875-1.089843-.261719-2.222656-.308593-3.335937-.144531-2.253906.210938-4.304688 1.398438-5.613282 3.242188-.699218.882812-1.222656 1.886718-1.546874 2.960937-.257813 1.09375-.304688 2.226563-.144532 3.339844.136719 1.105469.488282 2.175781 1.035156 3.148437 1.699219 3.027344 5.066407 4.722656 8.511719 4.285156 3.445313-.4375 6.28125-2.921874 7.175781-6.277343.890626-3.359375-.34375-6.921875-3.121093-9.007813zm0 0"/><path d="m125.746094 167.566406c-.972656-.546875-2.042969-.894531-3.148438-1.03125-2.25-.394531-4.558594.230469-6.296875 1.707032-1.847656 1.308593-3.03125 3.359374-3.246093 5.613281-.164063 1.113281-.117188 2.246093.148437 3.339843.316406 1.078126.839844 2.082032 1.542969 2.960938 2.089844 2.773438 5.648437 4.007812 9.007812 3.117188 3.355469-.890626 5.839844-3.730469 6.277344-7.175782.4375-3.445312-1.257812-6.8125-4.285156-8.511718zm0 0"/><path d="m247.78125 256.945312c2.074219 2.761719 5.613281 3.984376 8.949219 3.097657 3.355469-.878907 5.84375-3.703125 6.292969-7.140625.453124-3.4375-1.222657-6.808594-4.234376-8.527344-.972656-.539062-2.042968-.886719-3.148437-1.023438-1.109375-.167968-2.242187-.121093-3.335937.136719-1.078126.324219-2.082032.847657-2.960938 1.546875-1.847656 1.3125-3.03125 3.363282-3.242188 5.621094-.386718 2.246094.234376 4.546875 1.703126 6.289062zm0 0"/><path d="m119.722656 213.359375c.027344-2.855469-1.386718-5.53125-3.761718-7.117187-2.375-1.582032-5.390626-1.859376-8.015626-.734376-2.144531.773438-3.832031 2.464844-4.609374 4.609376-.9375 2.058593-.9375 4.421874 0 6.484374.777343 2.144532 2.464843 3.832032 4.609374 4.605469 2.625 1.125 5.640626.851563 8.015626-.734375 2.375-1.582031 3.789062-4.261718 3.761718-7.113281zm0 0"/><path d="m258.753906 207.300781c-.769531.8125-1.378906 1.769531-1.792968 2.816407-.945313 2.054687-.945313 4.425781 0 6.484374.414062 1.042969 1.023437 2 1.792968 2.816407.816406.773437 1.769532 1.378906 2.816406 1.789062 3.574219 1.523438 7.722657.441407 10.097657-2.632812 2.375-3.070313 2.375-7.359375 0-10.433594s-6.523438-4.15625-10.097657-2.632813c-1.046874.410157-2 1.019532-2.816406 1.792969zm0 0"/><path d="m123.699219 243.480469c-3.339844-.890625-6.882813.335937-8.953125 3.097656-1.476563 1.742187-2.101563 4.050781-1.707032 6.296875.21875 2.253906 1.402344 4.300781 3.242188 5.617188.878906.699218 1.886719 1.222656 2.960938 1.542968 1.09375.257813 2.226562.308594 3.335937.144532 1.109375-.132813 2.179687-.484376 3.152344-1.03125 3.011719-1.714844 4.6875-5.085938 4.238281-8.523438s-2.933594-6.261719-6.289062-7.144531zm0 0"/><path d="m252.304688 183.226562c1.09375.257813 2.222656.308594 3.335937.144532 1.105469-.132813 2.175781-.484375 3.148437-1.03125 3.027344-1.703125 4.722657-5.070313 4.285157-8.515625-.4375-3.445313-2.921875-6.28125-6.277344-7.171875s-6.917969.34375-9.007813 3.117187c-.703124.878907-1.226562 1.882813-1.542968 2.960938-.261719 1.09375-.3125 2.226562-.144532 3.335937.210938 2.253906 1.394532 4.304688 3.242188 5.617188.878906.699218 1.882812 1.222656 2.960938 1.542968zm0 0"/><path d="m153.855469 272.476562c-1.957031-1.15625-4.292969-1.472656-6.484375-.886718-2.195313.585937-4.058594 2.03125-5.171875 4.011718-.546875.96875-.898438 2.039063-1.035157 3.148438-.160156 1.109375-.113281 2.242188.144532 3.335938.324218 1.074218.847656 2.082031 1.546875 2.960937 1.308593 1.847656 3.359375 3.03125 5.613281 3.242187 1.113281.167969 2.246094.117188 3.335938-.144531 1.078124-.316406 2.085937-.84375 2.960937-1.546875 2.289063-1.707031 3.554687-4.457031 3.371094-7.308594-.183594-2.847656-1.796875-5.410156-4.28125-6.8125zm0 0"/><path d="m219.664062 152.003906c1.3125 1.847656 3.367188 3.03125 5.621094 3.242188 1.109375.164062 2.238282.117187 3.328125-.144532 1.078125-.320312 2.085938-.839843 2.972657-1.535156 2.761718-2.09375 3.984374-5.652344 3.089843-9-.890625-3.347656-3.722656-5.824218-7.160156-6.265625-3.4375-.441406-6.800781 1.242188-8.507813 4.257813-.542968.972656-.894531 2.046875-1.027343 3.15625-.390625 2.246094.234375 4.550781 1.707031 6.289062zm0 0"/><path d="m191.519531 204.824219-31.632812-31.632813c-3.347657-3.234375-8.667969-3.1875-11.960938.105469-3.292969 3.289063-3.339843 8.613281-.105469 11.960937l34.132813 34.132813c1.601563 1.601563 3.773437 2.5 6.035156 2.5h42.667969c4.710938 0 8.53125-3.820313 8.53125-8.53125 0-4.714844-3.820312-8.535156-8.53125-8.535156zm0 0"/></svg>