<?xml version="1.0" encoding="iso-8859-1"?>
<!-- Generator: Adobe Illustrator 19.0.0, SVG Export Plug-In . SVG Version: 6.00 Build 0)  -->
<svg version="1.1" id="Capa_1" xmlns="http://www.w3.org/2000/svg" xmlns:xlink="http://www.w3.org/1999/xlink" x="0px" y="0px"
	 viewBox="0 0 484.892 484.892" style="enable-background:new 0 0 484.892 484.892;" xml:space="preserve">
<g>
	<path d="M423.107,484.892H61.785V0h361.322V484.892z M82.419,464.258h320.054V20.634H82.419V464.258z"/>
	<rect x="144.088" y="358.006" width="204.554" height="20.634"/>
	<rect x="144.088" y="419.162" width="204.554" height="20.634"/>
	<g>
		<path d="M163.89,245.893c5.45-0.433,10.76,1.929,15.959,7.123c5.188,5.188,7.476,10.504,6.851,15.933
			c-0.625,5.426-4.04,11.249-10.247,17.455l-5.592,5.592l11.717,11.722l-9.37,9.375l-42.012-42.012l14.841-14.846
			C152.495,249.786,158.439,246.33,163.89,245.893z M173.532,269.302c-0.173-2.376-1.421-4.786-3.839-7.208
			c-2.428-2.423-4.864-3.336-7.374-2.977c-5.129,0.733-13.702,10.639-13.702,10.639l14.125,14.126
			C162.742,283.881,173.954,275.117,173.532,269.302z"/>
	</g>
	<g>
		<path d="M241.367,244.936l-12.987-5.174l-17.611,17.611l5.168,12.987l-9.974,9.979l-23.858-60.168l9.069-9.073l60.168,23.858
			L241.367,244.936z M199.172,228.11l6.912,17.485l10.508-10.518L199.172,228.11z"/>
	</g>
	<g>
		<path d="M262.223,167.942c6.73,6.73,8.412,13.742,5.047,21.037l25.661,4.387l-11.535,11.541l-22.72-4.085l-6.488,6.493l13.4,13.4
			l-9.379,9.375l-42.013-42.012l15.928-15.929c6.53-6.529,12.292-10.09,17.279-10.67
			C252.389,160.894,257.336,163.051,262.223,167.942z M255.906,184.228c-0.004-2.21-0.947-4.438-3.215-6.705
			c-2.256-2.256-4.425-3.231-6.468-2.857c-4.942,0.906-14.599,12.085-14.599,12.085l12.443,12.448
			C244.067,199.2,255.915,188.973,255.906,184.228z"/>
	</g>
	<g>
		<path d="M282.957,135.546l33.893,33.897l-9.37,9.375l-33.902-33.898l-11.899,11.905l-8.11-8.116l33.177-33.182l8.111,8.115
			L282.957,135.546z"/>
	</g>
	<g>
		<path d="M353.694,132.598l-9.37,9.375l-16.594-16.594l-39.967-10.871l10.155-10.161l24.694,6.549l-6.539-24.699l10.156-10.156
			l10.871,39.962L353.694,132.598z"/>
	</g>
</g>
<g>
</g>
<g>
</g>
<g>
</g>
<g>
</g>
<g>
</g>
<g>
</g>
<g>
</g>
<g>
</g>
<g>
</g>
<g>
</g>
<g>
</g>
<g>
</g>
<g>
</g>
<g>
</g>
<g>
</g>
</svg>
