<?xml version="1.0" encoding="iso-8859-1"?>
<!-- Generator: Adobe Illustrator 21.0.0, SVG Export Plug-In . SVG Version: 6.00 Build 0)  -->
<svg version="1.1" id="Capa_1" xmlns="http://www.w3.org/2000/svg" xmlns:xlink="http://www.w3.org/1999/xlink" x="0px" y="0px"
	 viewBox="0 0 511.986 511.986" style="enable-background:new 0 0 511.986 511.986;" xml:space="preserve">
<g>
	<g>
		<g>
			<path d="M469.327,17.053H337.324c-1.112-1.336-2.312-2.596-3.592-3.772C323.389,3.91,309.674-0.842,295.75,0.123
				c-15.103,0.976-29.137,8.134-38.793,19.789c-0.324,0.367-0.649,0.734-0.964,1.118c-0.273-0.324-0.546-0.649-0.853-0.964
				c-9.663-11.728-23.741-18.944-38.903-19.942c-13.886-0.952-27.563,3.775-37.897,13.099c-1.307,1.196-2.536,2.476-3.678,3.831
				H42.66c-9.426,0-17.067,7.641-17.067,17.067v460.8c0,9.426,7.641,17.067,17.067,17.067h426.667
				c9.426,0,17.067-7.641,17.067-17.067V34.12C486.393,24.694,478.752,17.053,469.327,17.053z M185.866,30.442
				c1.153-1.703,2.495-3.269,4.002-4.668c6.395-5.69,14.677-8.798,23.236-8.721c0.708,0,1.417,0,2.125,0.068
				c10.599,0.688,20.419,5.808,27.051,14.106c2.416,2.795,4.498,5.862,6.204,9.139c1.631,2.572,4.464,4.13,7.509,4.13
				c3.045,0,5.879-1.558,7.509-4.13c1.74-3.336,3.868-6.456,6.34-9.293c6.612-8.227,16.381-13.291,26.914-13.952
				c9.297-0.652,18.464,2.477,25.421,8.678c1.496,1.393,2.828,2.954,3.968,4.651c4.972,7.83,7.302,17.048,6.647,26.3
				c-0.075,3.414-0.411,6.818-1.007,10.18c-1.966,11.471-5.852,22.529-11.494,32.708c-2.529,4.958-5.597,9.623-9.148,13.909
				c-15.856,18.413-34.459,34.27-55.151,47.01c-20.729-12.759-39.366-28.638-55.253-47.078c-3.552-4.313-6.62-9.003-9.148-13.986
				c-5.625-10.187-9.488-21.251-11.426-32.725c-0.58-3.31-0.905-6.659-0.973-10.018C178.547,47.493,180.886,38.272,185.866,30.442z
				 M469.327,494.92H42.66V34.12h122.76c-2.425,7.431-3.54,15.227-3.294,23.04c0.092,4.141,0.497,8.268,1.212,12.348
				c2.203,13.24,6.628,26.013,13.09,37.777c3.036,5.988,6.719,11.625,10.982,16.811c18.347,21.231,39.981,39.381,64.077,53.76
				c2.759,1.715,6.252,1.715,9.011,0c24.062-14.35,45.669-32.463,64-53.649c4.249-5.153,7.925-10.753,10.965-16.7
				c6.473-11.759,10.919-24.524,13.15-37.76c0.732-4.144,1.149-8.337,1.246-12.544c0.251-7.826-0.861-15.637-3.285-23.083h122.752
				V494.92z"/>
			<path d="M375.46,76.786h51.2v214.059c-6.785-13.864-11.94-28.468-15.36-43.52c-1.155-5.168-1.727-10.449-1.707-15.744
				c-0.03-16.413-6.891-32.072-18.935-43.221c-25.423-23.562-64.706-23.562-90.129,0c-12.036,11.141-18.896,26.786-18.935,43.187
				c0.018,5.287-0.555,10.559-1.707,15.718c-4.45,21.167-12.911,41.287-24.926,59.273c-3.642,4.815-4.228,11.283-1.51,16.674
				c2.997,5.909,9.093,9.6,15.718,9.515h24.798c-13.483,7.177-27.204,14.14-27.648,14.379c-3.147,1.791-6.02,4.024-8.533,6.63
				c-2.957-4.303-6.79-7.932-11.247-10.65l-43.11-25.933v-8.721c5.523-7.557,9.432-16.169,11.486-25.301
				c0.266-1.379,0.927-2.651,1.903-3.661c4.453-4.488,6.961-10.548,6.98-16.87v-14.507c-0.022-3.708-0.898-7.361-2.56-10.675
				l-0.853-1.707c-0.472-0.943-0.718-1.983-0.717-3.038v-20.847c-0.009-22.689-18.365-41.098-41.054-41.173h-24.44
				c-22.712,0.042-41.104,18.461-41.114,41.173v20.864c0.001,1.055-0.244,2.095-0.717,3.038l-0.853,1.707
				c-1.642,3.313-2.501,6.96-2.509,10.658V262.6c-0.014,6.333,2.502,12.41,6.989,16.879c0.971,1.002,1.629,2.265,1.894,3.635
				c2.045,9.14,5.955,17.76,11.486,25.318v8.713l-43.119,25.941c-0.316,0.188-0.597,0.435-0.905,0.631V76.786h51.2
				c4.713,0,8.533-3.82,8.533-8.533s-3.82-8.533-8.533-8.533h-51.2c-9.426,0-17.067,7.641-17.067,17.067v332.8
				c0,4.713,3.82,8.533,8.533,8.533h358.4c4.713,0,8.533-3.82,8.533-8.533v-332.8c0-9.426-7.641-17.067-17.067-17.067h-51.2
				c-4.713,0-8.533,3.82-8.533,8.533S370.747,76.786,375.46,76.786z M85.326,401.053l0-26.172
				c-0.024-7.041,3.671-13.572,9.719-17.178l45.116-27.145c3.899-2.233,6.291-6.395,6.255-10.889v-12.689
				c-0.008-2.648-0.846-5.227-2.398-7.373c-4.517-5.889-7.733-12.668-9.438-19.891c-0.92-4.653-3.194-8.931-6.536-12.297
				c-1.278-1.279-1.996-3.013-1.997-4.821v-14.507c0.005-1.057,0.25-2.098,0.717-3.046l0.853-1.707
				c1.65-3.317,2.511-6.97,2.517-10.675v-20.838c0.005-13.285,10.753-24.064,24.038-24.107h24.44
				c13.288,0.038,24.042,10.818,24.047,24.107v20.864c0.019,3.708,0.896,7.362,2.56,10.675l0.853,1.707
				c0.471,0.953,0.719,2,0.725,3.063v14.507c-0.008,1.808-0.728,3.541-2.005,4.821c-3.34,3.374-5.614,7.656-6.536,12.314
				c-1.71,7.242-4.942,14.037-9.481,19.934c-1.521,2.135-2.341,4.691-2.347,7.313v12.689c-0.048,4.447,2.294,8.578,6.135,10.82
				l45.227,27.213c6.017,3.609,9.69,10.119,9.668,17.135l0,26.172H85.326z M426.66,401.053H264.526v-22.366
				c0.059-6.885,3.813-13.207,9.83-16.555c1.126-0.563,27.682-14.054,43.52-23.04c4.98-2.729,7.448-8.51,5.973-13.995
				c-1.486-5.609-6.606-9.482-12.407-9.387l-41.958-0.128c12.924-19.615,22.072-41.471,26.974-64.444
				c1.469-6.427,2.207-13,2.202-19.593c0.05-11.713,4.972-22.877,13.585-30.814c18.847-17.351,47.85-17.351,66.697,0
				c8.613,7.937,13.535,19.101,13.585,30.814c-0.007,6.587,0.729,13.153,2.193,19.575c4.91,23.014,14.088,44.904,27.059,64.538
				h-42.052c-5.802-0.096-10.921,3.777-12.407,9.387c-1.474,5.484,0.993,11.265,5.973,13.995
				c15.855,8.994,42.411,22.485,43.179,22.861c6.205,3.316,10.11,9.75,10.189,16.785V401.053z M426.66,348.317
				c-0.708-0.461-1.374-0.964-2.116-1.382c-0.196-0.102-13.833-7.031-27.307-14.191h24.815c1.557-0.016,3.105-0.232,4.608-0.64
				V348.317z"/>
			<path d="M349.86,443.72H85.326c-4.713,0-8.533,3.821-8.533,8.533c0,4.713,3.82,8.533,8.533,8.533H349.86
				c4.713,0,8.533-3.821,8.533-8.533C358.393,447.54,354.573,443.72,349.86,443.72z"/>
			<path d="M426.66,443.72h-42.667c-4.713,0-8.533,3.821-8.533,8.533c0,4.713,3.82,8.533,8.533,8.533h42.667
				c4.713,0,8.533-3.821,8.533-8.533C435.193,447.54,431.373,443.72,426.66,443.72z"/>
		</g>
	</g>
</g>
<g>
</g>
<g>
</g>
<g>
</g>
<g>
</g>
<g>
</g>
<g>
</g>
<g>
</g>
<g>
</g>
<g>
</g>
<g>
</g>
<g>
</g>
<g>
</g>
<g>
</g>
<g>
</g>
<g>
</g>
</svg>
