<svg xmlns="http://www.w3.org/2000/svg" xmlns:xlink="http://www.w3.org/1999/xlink" viewBox="0 0 20 20">
  <defs>
    <style>
      .cls-1 {
        clip-path: url(#clip-custom_1);
      }
    </style>
    <clipPath id="clip-custom_1">
      <rect width="20" height="20"/>
    </clipPath>
  </defs>
  <g id="custom_1" data-name="custom – 1" class="cls-1">
    <g id="noun_lamp_1685874" transform="translate(1 -0.805)">
      <g id="Group_2" data-name="Group 2" transform="translate(1.714 0.805)">
        <path id="Path_9" data-name="Path 9" d="M13.2,1.39h-.676l2.491,9.789q.36-.081.714-.171ZM5.632,17.119a3.647,3.647,0,0,0,1.1,3.191H11.42a3.647,3.647,0,0,0,1.1-3.191v-.006c-.088-2.008-2.017-2.143-2.09-4.74q-.678.032-1.361.032t-1.352-.032c-.073,2.6-2,2.731-2.09,4.739v.006Zm-.493-.033h0c.1-2.235,2.022-2.316,2.088-4.74a27.7,27.7,0,0,1-5.513-.923L4.506.8H13.65l2.792,10.618c-.759.2-1.507.383-2.281.525V14.7a.524.524,0,1,1-.328,0v-2.7a27.961,27.961,0,0,1-2.9.339c.065,2.424,1.986,2.506,2.088,4.741h0A4.039,4.039,0,0,1,11.589,20.8H6.568a4.039,4.039,0,0,1-1.429-3.719Zm6.7-15.7h-.882l1.339,10.247q1.049-.121,2.069-.321L11.837,1.39Zm-1.529,0H9.4V11.819c.757-.009,1.511-.048,2.258-.117L10.309,1.39Zm-1.55,0H7.848L6.5,11.7c.75.069,1.5.107,2.258.116V1.39ZM7.2,1.39H6.319L3.793,11.316c.682.134,1.373.241,2.069.321Zm-1.57,0H4.956L2.426,11.007q.355.091.714.171L5.631,1.39Z" transform="translate(-1.714 -0.805)"/>
      </g>
    </g>
  </g>
</svg>
