<?xml version="1.0" encoding="UTF-8"?><svg width="24" height="24" version="1.1" viewBox="0 0 24 24" xmlns="http://www.w3.org/2000/svg" xmlns:xlink="http://www.w3.org/1999/xlink"><!--Generated by IJSVG (https://github.com/iconjar/IJSVG)--><g transform="scale(0.375)"><g transform="matrix(1,0,0,1,-4.926,30.178)"><path fill="none" stroke="#444" stroke-linecap="square" stroke-width="2" d="M33.9645,38.006c-1.95259,0 -3.5355,-1.58314 -3.5355,-3.536v-26.869c0,-1.95286 1.58291,-3.536 3.5355,-3.536v0c1.95259,0 3.5355,1.58314 3.5355,3.536v26.869c0,1.95286 -1.58291,3.536 -3.5355,3.536Z" transform="matrix(0.707107,-0.707107,0.707107,0.707107,0,0)"></path></g><path fill="none" stroke="#444" stroke-linecap="square" stroke-width="2" d="M35,41v10l3.55271e-14,4.52987e-07c2.50178e-07,1.65685 1.34315,3 3,3v0h-1.31134e-07c1.65685,7.24234e-08 3,-1.34315 3,-3v-6l3.55271e-14,4.52987e-07c-2.50178e-07,-1.65685 1.34315,-3 3,-3v0h-1.31134e-07c1.65685,-7.24234e-08 3,1.34315 3,3v14l3.55271e-14,4.52987e-07c2.50178e-07,1.65685 1.34315,3 3,3v0h-1.31134e-07c1.65685,7.24234e-08 3,-1.34315 3,-3v-25"></path><path fill="none" stroke="#444" stroke-linecap="square" stroke-width="2" d="M36.964,29.036l-3.60187e-08,-3.60078e-08c1.38071,1.38029 1.38105,3.61853 0.000755186,4.99924c-0.000251667,0.000251743 -0.000503371,0.000503447 -0.000755114,0.000755114v0l5.73843e-08,-5.73368e-08c-1.38105,1.3799 -3.61895,1.3799 -5,1.14674e-07l-11,-11l9.70699e-08,9.71504e-08c-1.3799,-1.38105 -1.3799,-3.61895 -1.9414e-07,-5v0l-2.9422e-07,2.94309e-07c1.38029,-1.38071 3.61853,-1.38105 4.99924,-0.000755703c0.000251743,0.000251667 0.000503447,0.000503371 0.000755114,0.000755114"></path><path fill="none" stroke="#444" stroke-width="2" d="M28.955,31.026l-17.029,17.9l1.06379e-07,-1.11735e-07c-1.57698,1.65637 -4.19813,1.72072 -5.85449,0.143742c-0.0241148,-0.0229591 -0.0479519,-0.0462081 -0.071506,-0.0697422h-1.04924e-07l-1.90382e-07,-1.90418e-07c-1.61701,-1.61731 -1.61677,-4.23925 0.000543173,-5.85626c0.0235379,-0.0235336 0.0473587,-0.0467825 0.0714572,-0.0697417l17.892,-17.038"></path><path fill="none" stroke="#444" stroke-linecap="square" stroke-width="2" d="M35.964,8.036l9.70699e-08,9.71504e-08c-1.3799,-1.38105 -1.3799,-3.61895 -1.9414e-07,-5v0l-2.9422e-07,2.94309e-07c1.38029,-1.38071 3.61853,-1.38105 4.99924,-0.000755703c0.000251743,0.000251667 0.000503447,0.000503371 0.000755114,0.000755114l11,11l-3.60187e-08,-3.60078e-08c1.38071,1.38029 1.38105,3.61853 0.000755186,4.99924c-0.000251667,0.000251743 -0.000503371,0.000503447 -0.000755114,0.000755114v0l5.73843e-08,-5.73368e-08c-1.38105,1.3799 -3.61895,1.3799 -5,1.14674e-07"></path><path fill="none" stroke="#444" stroke-linecap="square" stroke-width="2" d="M26.964,9.036l9.70699e-08,9.71504e-08c-1.3799,-1.38105 -1.3799,-3.61895 -1.9414e-07,-5v0l-2.9422e-07,2.94309e-07c1.38029,-1.38071 3.61853,-1.38105 4.99924,-0.000755703c0.000251743,0.000251667 0.000503447,0.000503371 0.000755114,0.000755114l19,19l-3.60187e-08,-3.60078e-08c1.38071,1.38029 1.38105,3.61853 0.000755186,4.99924c-0.000251667,0.000251743 -0.000503371,0.000503447 -0.000755114,0.000755114v0l5.73843e-08,-5.73368e-08c-1.38105,1.3799 -3.61895,1.3799 -5,1.14674e-07"></path></g></svg>