<?xml version="1.0" encoding="UTF-8"?><svg width="24" height="24" version="1.1" viewBox="0 0 24 24" xmlns="http://www.w3.org/2000/svg" xmlns:xlink="http://www.w3.org/1999/xlink"><!--Generated by IJSVG (https://github.com/iconjar/IJSVG)--><path d="M18.5,5h-3.001c0.315,-0.418 0.501,-0.938 0.501,-1.5c0,-1.378 -1.122,-2.5 -2.5,-2.5c-1.39,0 -2.556,1.101 -3.127,1.758c-0.346,0.397 -0.644,0.823 -0.873,1.235c-0.229,-0.412 -0.527,-0.837 -0.873,-1.235c-0.571,-0.656 -1.737,-1.758 -3.127,-1.758c-1.378,0 -2.5,1.122 -2.5,2.5c0,0.562 0.187,1.082 0.501,1.5h-3.001c-0.276,0 -0.5,0.224 -0.5,0.5v3c0,0.276 0.224,0.5 0.5,0.5h0.5v9.5c0,0.827 0.673,1.5 1.5,1.5h14c0.827,0 1.5,-0.673 1.5,-1.5v-9.5h0.5c0.276,0 0.5,-0.224 0.5,-0.5v-3c0,-0.276 -0.224,-0.5 -0.5,-0.5Zm-7.373,-1.586c0.782,-0.899 1.647,-1.414 2.373,-1.414c0.827,0 1.5,0.673 1.5,1.5c0,0.827 -0.673,1.5 -1.5,1.5h-3.378c0.173,-0.442 0.523,-1.032 1.005,-1.586Zm-0.127,15.586h-3v-13h3v13Zm-7,-15.5c0,-0.827 0.673,-1.5 1.5,-1.5c0.726,0 1.591,0.515 2.373,1.414c0.482,0.554 0.832,1.144 1.005,1.586h-3.378c-0.827,0 -1.5,-0.673 -1.5,-1.5Zm-3,2.5h6v2h-6v-2Zm1,12.5v-9.5h5v10h-4.5c-0.276,0 -0.5,-0.224 -0.5,-0.5Zm15,0c0,0.276 -0.224,0.5 -0.5,0.5h-4.5v-10h5v9.5Zm1,-10.5h-6v-2h6v2Z" transform="scale(1.2)" fill="#000"></path></svg>