<?xml version="1.0" encoding="iso-8859-1"?>
<!-- Generator: Adobe Illustrator 19.0.0, SVG Export Plug-In . SVG Version: 6.00 Build 0)  -->
<svg version="1.1" id="Capa_1" xmlns="http://www.w3.org/2000/svg" xmlns:xlink="http://www.w3.org/1999/xlink" x="0px" y="0px"
	 viewBox="0 0 60 60" style="enable-background:new 0 0 60 60;" xml:space="preserve">
<path d="M47.567,53h-1.501c-0.003-1.077-0.208-2.076-0.575-2.981l2.576-2.576l1.293,1.293c0.195,0.195,0.451,0.293,0.707,0.293
	s0.512-0.098,0.707-0.293c0.391-0.391,0.391-1.023,0-1.414l-4-4c-0.391-0.391-1.023-0.391-1.414,0s-0.391,1.023,0,1.414l1.293,1.293
	l-2.202,2.202c-1.01-1.278-2.452-2.229-4.205-2.748c3.435-4.099,5.822-11.125,5.822-17.528c0-4.892-1.55-11.535-4.527-15.926h2.527
	c0.552,0,1-0.448,1-1s-0.448-1-1-1h-3V10c0-2.757-2.243-5-5-5h-0.09c-0.478-2.833-2.942-5-5.91-5h-1c-2.967,0-5.431,2.167-5.91,5
	h-0.09c-2.757,0-5,2.243-5,5v0.028h-4c-0.552,0-1,0.448-1,1s0.448,1,1,1h3.527c-1.177,1.737-2.127,3.826-2.85,6.02
	c-0.046,0.05-0.1,0.09-0.135,0.15C9.9,26.133,6.97,35.254,10.479,37.337c0.428,0.254,0.902,0.374,1.414,0.374
	c0.784,0,1.658-0.296,2.583-0.806c1.032,3.339,2.57,6.378,4.413,8.577c-3.53,1.046-5.809,3.844-5.82,7.518h-0.501
	c-1.93,0-3.5,1.57-3.5,3.5s1.57,3.5,3.5,3.5h35c1.93,0,3.5-1.57,3.5-3.5S49.496,53,47.567,53z M29.067,2h1
	c1.86,0,3.428,1.277,3.874,3h-8.747C25.639,3.277,27.206,2,29.067,2z M23.067,7h13c1.654,0,3,1.346,3,3h-8.151
	c0.029-0.332,0.065-0.671,0.065-0.973c-0.001-0.552-0.448-0.999-1-0.999h-0.001c-0.552,0.001-1,0.449-0.999,1.001
	c0,0.301-0.023,0.63-0.058,0.97h-8.856C20.067,8.346,21.413,7,23.067,7z M28.567,12.028c-0.766,3.22-2.556,7.397-4.987,11.494
	c-2.777,4.678-5.631,8.064-7.909,10.07c-0.387-1.866-0.604-3.778-0.604-5.638c0-5.85,2.096-12.448,5.025-15.926H28.567z
	 M11.5,35.617c-1.112-0.66-0.738-4.685,1.711-10.339c-0.092,0.929-0.144,1.831-0.144,2.676c0,2.302,0.312,4.685,0.867,6.985
	C12.818,35.659,11.963,35.893,11.5,35.617z M21.167,45.028c-2.128-2.116-3.891-5.514-4.966-9.284
	c3.025-2.372,6.378-6.615,9.1-11.202c2.667-4.496,4.558-9.003,5.313-12.515h8.429c2.929,3.479,5.025,10.076,5.025,15.926
	c0,6.451-2.549,13.543-6.1,17.074h-0.928h-2.972v-1.5c0-1.402-0.658-2.64-1.665-3.466c0.523-0.403,0.974-0.926,1.339-1.571
	c1.532-2.706,1.214-6.903,0.01-8.903l-4.326-8.834l-4.285,8.76c-1.253,2.089-1.589,6.29-0.067,8.977
	c0.404,0.713,0.918,1.272,1.517,1.689c-0.926,0.825-1.522,2.013-1.522,3.348v1.5h-2.972H21.167z M31.697,37.923
	c0.162-1.014-0.018-2.136-0.376-2.732l-1.658-3.386l-1.658,3.386c-0.434,0.723-0.623,2.217-0.242,3.355
	c-0.371-0.25-0.693-0.585-0.951-1.041c-1.207-2.131-0.774-5.603,0.083-7.038l2.53-5.167l2.57,5.241
	c0.809,1.348,1.223,4.813,0.005,6.963C31.909,37.665,31.801,37.789,31.697,37.923z M27.067,43.528c0-1.378,1.122-2.5,2.5-2.5
	s2.5,1.122,2.5,2.5v1.5h-5V43.528z M22.095,47.028h2.972h9h2.972c3.49,0,7.012,1.847,7.028,5.972h-29
	C15.083,48.875,18.605,47.028,22.095,47.028z M47.567,58h-35c-0.827,0-1.5-0.673-1.5-1.5s0.673-1.5,1.5-1.5h0.5h33h1.5
	c0.827,0,1.5,0.673,1.5,1.5S48.394,58,47.567,58z"/>
<g>
</g>
<g>
</g>
<g>
</g>
<g>
</g>
<g>
</g>
<g>
</g>
<g>
</g>
<g>
</g>
<g>
</g>
<g>
</g>
<g>
</g>
<g>
</g>
<g>
</g>
<g>
</g>
<g>
</g>
</svg>
