<?xml version="1.0" encoding="UTF-8"?><svg width="24" height="24" version="1.1" viewBox="0 0 24 24" xmlns="http://www.w3.org/2000/svg" xmlns:xlink="http://www.w3.org/1999/xlink"><!--Generated by IJSVG (https://github.com/iconjar/IJSVG)--><g transform="scale(1.2)"><path fill="#000" d="M19.854,8.646c-0.195,-0.195 -0.512,-0.195 -0.707,0l-1.149,1.149c-0.051,-2.06 -0.878,-3.99 -2.341,-5.452c-1.511,-1.511 -3.52,-2.343 -5.657,-2.343c-2.974,0 -5.686,1.635 -7.077,4.266c-0.129,0.244 -0.036,0.547 0.208,0.676c0.244,0.129 0.547,0.036 0.676,-0.208c1.217,-2.303 3.59,-3.734 6.193,-3.734c3.789,0 6.885,3.027 6.997,6.789l-1.143,-1.143c-0.195,-0.195 -0.512,-0.195 -0.707,0c-0.195,0.195 -0.195,0.512 0,0.707l2,2c0.098,0.098 0.226,0.146 0.354,0.146c0.128,0 0.256,-0.049 0.354,-0.146l2,-2c0.195,-0.195 0.195,-0.512 0,-0.707Z"></path><path fill="#000" d="M16.869,13.058c-0.244,-0.129 -0.547,-0.036 -0.676,0.208c-1.217,2.303 -3.59,3.734 -6.193,3.734c-3.789,0 -6.885,-3.027 -6.997,-6.789l1.143,1.143c0.098,0.098 0.226,0.146 0.354,0.146c0.128,0 0.256,-0.049 0.354,-0.146c0.195,-0.195 0.195,-0.512 0,-0.707l-2,-2c-0.195,-0.195 -0.512,-0.195 -0.707,0l-2,2c-0.195,0.195 -0.195,0.512 0,0.707c0.195,0.195 0.512,0.195 0.707,0l1.149,-1.149c0.051,2.06 0.878,3.99 2.341,5.452c1.511,1.511 3.52,2.343 5.657,2.343c2.974,0 5.686,-1.635 7.077,-4.266c0.129,-0.244 0.036,-0.547 -0.208,-0.676Z"></path></g></svg>