<?xml version="1.0" encoding="UTF-8"?><svg width="24" height="24" version="1.1" viewBox="0 0 24 24" xmlns="http://www.w3.org/2000/svg" xmlns:xlink="http://www.w3.org/1999/xlink"><!--Generated by IJSVG (https://github.com/iconjar/IJSVG)--><g transform="scale(1.2)"><path fill="#000" d="M9.5,14.993c-2.477,0 -4.493,-2.015 -4.493,-4.493c0,-2.478 2.015,-4.493 4.493,-4.493c2.478,0 4.493,2.015 4.493,4.493c0,2.478 -2.015,4.493 -4.493,4.493Zm0,-7.986c-1.926,0 -3.493,1.567 -3.493,3.493c0,1.926 1.567,3.493 3.493,3.493c1.926,0 3.493,-1.567 3.493,-3.493c0,-1.926 -1.567,-3.493 -3.493,-3.493Z"></path><path fill="#000" d="M9.5,5c-0.276,0 -0.5,-0.224 -0.5,-0.5v-3c0,-0.276 0.224,-0.5 0.5,-0.5c0.276,0 0.5,0.224 0.5,0.5v3c0,0.276 -0.224,0.5 -0.5,0.5Z"></path><path fill="#000" d="M9.5,20c-0.276,0 -0.5,-0.224 -0.5,-0.5v-3c0,-0.276 0.224,-0.5 0.5,-0.5c0.276,0 0.5,0.224 0.5,0.5v3c0,0.276 -0.224,0.5 -0.5,0.5Z"></path><path fill="#000" d="M3.5,11h-3c-0.276,0 -0.5,-0.224 -0.5,-0.5c0,-0.276 0.224,-0.5 0.5,-0.5h3c0.276,0 0.5,0.224 0.5,0.5c0,0.276 -0.224,0.5 -0.5,0.5Z"></path><path fill="#000" d="M18.5,11h-3c-0.276,0 -0.5,-0.224 -0.5,-0.5c0,-0.276 0.224,-0.5 0.5,-0.5h3c0.276,0 0.5,0.224 0.5,0.5c0,0.276 -0.224,0.5 -0.5,0.5Z"></path><path fill="#000" d="M4.5,6c-0.128,0 -0.256,-0.049 -0.354,-0.146l-2,-2c-0.195,-0.195 -0.195,-0.512 0,-0.707c0.195,-0.195 0.512,-0.195 0.707,0l2,2c0.195,0.195 0.195,0.512 0,0.707c-0.098,0.098 -0.226,0.146 -0.354,0.146Z"></path><path fill="#000" d="M2.5,18c-0.128,0 -0.256,-0.049 -0.354,-0.146c-0.195,-0.195 -0.195,-0.512 0,-0.707l2,-2c0.195,-0.195 0.512,-0.195 0.707,0c0.195,0.195 0.195,0.512 0,0.707l-2,2c-0.098,0.098 -0.226,0.146 -0.354,0.146Z"></path><path fill="#000" d="M16.5,18c-0.128,0 -0.256,-0.049 -0.354,-0.146l-2,-2c-0.195,-0.195 -0.195,-0.512 0,-0.707c0.195,-0.195 0.512,-0.195 0.707,0l2,2c0.195,0.195 0.195,0.512 0,0.707c-0.098,0.098 -0.226,0.146 -0.354,0.146Z"></path><path fill="#000" d="M14.5,6c-0.128,0 -0.256,-0.049 -0.354,-0.146c-0.195,-0.195 -0.195,-0.512 0,-0.707l2,-2c0.195,-0.195 0.512,-0.195 0.707,0c0.195,0.195 0.195,0.512 0,0.707l-2,2c-0.098,0.098 -0.226,0.146 -0.354,0.146Z"></path></g></svg>