<?xml version="1.0" encoding="UTF-8"?><svg width="24" height="24" version="1.1" viewBox="0 0 24 24" xmlns="http://www.w3.org/2000/svg" xmlns:xlink="http://www.w3.org/1999/xlink"><!--Generated by IJSVG (https://github.com/iconjar/IJSVG)--><g transform="scale(1.41176)"><path fill="#000" d="M2,0v16.902l2.028,-2.481l1.503,1.88l1.501,-1.875l1.499,1.875l1.5,-1.875l1.5,1.875l1.499,-1.875l1.97,2.46v-16.886h-13Zm12,14.036l-0.97,-1.211l-1.499,1.875l-1.5,-1.875l-1.5,1.875l-1.499,-1.875l-1.501,1.875l-1.495,-1.87l-1.036,1.268v-13.098h11v13.036Zm-3.003,-10.036h-6v-1h6v1Zm-2,4h-4v-1h4v1Zm2.981,-2h-7v-1h7v1Zm-6.978,4h7v1h-7v-1Z"></path></g></svg>