<?xml version="1.0" encoding="UTF-8"?><svg width="24" height="24" version="1.1" viewBox="0 0 24 24" xmlns="http://www.w3.org/2000/svg" xmlns:xlink="http://www.w3.org/1999/xlink"><!--Generated by IJSVG (https://github.com/iconjar/IJSVG)--><g transform="scale(1.41176)"><path fill="#000" d="M8.5,0.5c-4.411,0 -8,3.589 -8,8c0,4.281 3.352,7.787 7.631,7.982l1.288,0.059l-2.723,-2.723c-0.283,-0.283 -0.439,-0.66 -0.439,-1.061c0,-0.401 0.156,-0.777 0.439,-1.061c0.566,-0.566 1.555,-0.566 2.121,0l3.719,3.719l0.34,-0.223c2.27,-1.486 3.624,-3.988 3.624,-6.692c0,-4.411 -3.589,-8 -8,-8Zm4.16,13.625l-3.135,-3.135c-0.943,-0.944 -2.592,-0.944 -3.535,0c-0.472,0.472 -0.732,1.1 -0.732,1.768c0,0.668 0.26,1.296 0.732,1.768l0.741,0.741c-3.026,-0.783 -5.231,-3.52 -5.231,-6.767c0,-3.86 3.14,-7 7,-7c3.86,0 7,3.14 7,7c0,2.23 -1.054,4.305 -2.84,5.625Zm-1.16,-7.625c-1.103,0 -2,0.897 -2,2c0,1.103 0.897,2 2,2c1.103,0 2,-0.897 2,-2c0,-1.103 -0.897,-2 -2,-2Zm0,3c-0.551,0 -1,-0.449 -1,-1c0,-0.551 0.449,-1 1,-1c0.551,0 1,0.449 1,1c0,0.551 -0.449,1 -1,1Zm-3,-3.5c-0.828,0 -1.5,-0.671 -1.5,-1.5c0,-0.829 0.672,-1.5 1.5,-1.5c0.829,0 1.5,0.671 1.5,1.5c0,0.829 -0.671,1.5 -1.5,1.5Zm-2.75,-0.109c0,0.552 -0.448,1 -1,1c-0.552,0 -1,-0.448 -1,-1c0,-0.552 0.448,-1 1,-1c0.552,0 1,0.447 1,1Z"></path></g></svg>