<?xml version="1.0" encoding="UTF-8"?><svg width="24" height="24" version="1.1" viewBox="0 0 24 24" xmlns="http://www.w3.org/2000/svg" xmlns:xlink="http://www.w3.org/1999/xlink"><!--Generated by IJSVG (https://github.com/iconjar/IJSVG)--><g transform="scale(1.2)"><path fill="#000" d="M18.5,20h-17c-0.827,0 -1.5,-0.673 -1.5,-1.5v-17c0,-0.827 0.673,-1.5 1.5,-1.5h17c0.827,0 1.5,0.673 1.5,1.5v17c0,0.827 -0.673,1.5 -1.5,1.5Zm-17,-19c-0.276,0 -0.5,0.224 -0.5,0.5v17c0,0.276 0.224,0.5 0.5,0.5h17c0.276,0 0.5,-0.224 0.5,-0.5v-17c0,-0.276 -0.224,-0.5 -0.5,-0.5h-17Z"></path><path fill="#000" d="M13,9c-1.103,0 -2,-0.897 -2,-2c0,-1.103 0.897,-2 2,-2c1.103,0 2,0.897 2,2c0,1.103 -0.897,2 -2,2Zm0,-3c-0.551,0 -1,0.449 -1,1c0,0.551 0.449,1 1,1c0.551,0 1,-0.449 1,-1c0,-0.551 -0.449,-1 -1,-1Z"></path><path fill="#000" d="M17.5,2h-15c-0.276,0 -0.5,0.224 -0.5,0.5v12c0,0.276 0.224,0.5 0.5,0.5h15c0.276,0 0.5,-0.224 0.5,-0.5v-12c0,-0.276 -0.224,-0.5 -0.5,-0.5Zm-14.5,9.69l3.209,-3.611c0.082,-0.092 0.189,-0.144 0.302,-0.145c0.113,-0.001 0.221,0.048 0.305,0.138l5.533,5.928h-9.349v-2.31Zm14,2.31h-3.283l-6.169,-6.61c-0.279,-0.299 -0.651,-0.461 -1.049,-0.456c-0.398,0.005 -0.766,0.176 -1.037,0.481l-2.462,2.77v-7.185h14v11Z"></path></g></svg>