<?xml version="1.0" encoding="iso-8859-1"?>
<!-- Generator: Adobe Illustrator 19.0.0, SVG Export Plug-In . SVG Version: 6.00 Build 0)  -->
<svg version="1.1" id="Capa_1" xmlns="http://www.w3.org/2000/svg" xmlns:xlink="http://www.w3.org/1999/xlink" x="0px" y="0px"
	 viewBox="0 0 512 512" style="enable-background:new 0 0 512 512;" xml:space="preserve">
<g>
	<g>
		<g>
			<path d="M256,34.133c-12.454-0.024-23.109,8.939-25.219,21.212c-2.11,12.274,4.939,24.28,16.686,28.417v10.104
				c0,4.713,3.82,8.533,8.533,8.533s8.533-3.821,8.533-8.533V83.763c11.747-4.137,18.796-16.144,16.686-28.417
				C279.109,43.072,268.454,34.11,256,34.133z M256,68.267c-4.713,0-8.533-3.82-8.533-8.533S251.287,51.2,256,51.2
				s8.533,3.82,8.533,8.533S260.713,68.267,256,68.267z"/>
			<path d="M511.727,69.717c0.134-0.474,0.226-0.96,0.273-1.451V25.6C512,11.461,500.539,0,486.4,0H25.6C11.461,0,0,11.461,0,25.6
				v42.667c0.052,0.495,0.152,0.984,0.299,1.459c0.029,0.519,0.109,1.033,0.239,1.536l50.347,134.195L0.188,441.95
				c-0.021,0.301-0.021,0.603,0,0.905c-0.079,0.289-0.142,0.583-0.188,0.879V486.4C0,500.539,11.461,512,25.6,512h460.8
				c14.138,0,25.6-11.461,25.6-25.6v-42.667c-0.044-0.287-0.104-0.572-0.179-0.853c0.021-0.301,0.021-0.603,0-0.905l-50.688-236.518
				l50.347-134.195C511.609,70.756,511.692,70.239,511.727,69.717z M213.333,17.067h85.333v102.4h-85.333V17.067z M494.933,486.4
				c0,4.713-3.82,8.533-8.533,8.533H25.6c-4.713,0-8.533-3.82-8.533-8.533v-34.133h477.867V486.4z M494.933,59.733h-153.6
				c-4.713,0-8.533,3.82-8.533,8.533s3.821,8.533,8.533,8.533h149.82l-46.882,125.005c-0.085,0.23-0.043,0.461-0.111,0.691
				c-0.146,0.558-0.234,1.13-0.265,1.707c-0.06,0.567-0.06,1.139,0,1.707c0,0.239-0.043,0.461,0,0.7L492.911,435.2H19.089
				l47.548-221.867h351.497c4.713,0,8.533-3.821,8.533-8.533s-3.82-8.533-8.533-8.533H65.647L20.847,76.8h149.82
				c4.713,0,8.533-3.82,8.533-8.533s-3.82-8.533-8.533-8.533h-153.6V25.6c0-4.713,3.82-8.533,8.533-8.533h170.667v102.4
				c0,9.426,7.641,17.067,17.067,17.067h85.333c9.426,0,17.067-7.641,17.067-17.067v-102.4H486.4c4.713,0,8.533,3.82,8.533,8.533
				V59.733z"/>
			<path d="M304.393,311.612c-1.303,1.194-2.412,2.585-3.285,4.122h-19.763c-0.575-9.734-3.192-19.238-7.68-27.895
				c-5.235-9.945-12.462-18.706-21.231-25.737c-9.206-7.445-19.659-13.2-30.874-16.998c-24.255-8.179-50.523-8.179-74.778,0
				c-11.213,3.796-21.663,9.552-30.865,16.998c-8.769,7.033-15.998,15.793-21.239,25.737c-1.402,2.707-1.254,5.957,0.389,8.525
				c1.643,2.568,4.532,4.064,7.578,3.925s5.786-1.893,7.188-4.6c4.168-7.872,9.91-14.802,16.87-20.361
				c7.654-6.172,16.338-10.944,25.651-14.097c20.647-6.938,42.995-6.938,63.642,0c9.296,3.157,17.962,7.929,25.6,14.097
				c6.965,5.557,12.708,12.491,16.87,20.369c8.053,15.213,8.053,33.427,0,48.64c-4.164,7.872-9.904,14.802-16.862,20.361
				c-7.655,6.17-16.339,10.943-25.651,14.097c-20.646,6.942-42.996,6.942-63.642,0c-9.313-3.153-17.997-7.925-25.651-14.097
				c-6.96-5.558-12.703-12.489-16.87-20.361c-1.402-2.707-4.143-4.461-7.188-4.6s-5.934,1.357-7.578,3.925
				c-1.643,2.568-1.792,5.818-0.389,8.525c5.241,9.944,12.471,18.704,21.24,25.737c9.214,7.441,19.676,13.188,30.899,16.973
				c24.247,8.226,50.53,8.226,74.778,0c11.214-3.798,21.667-9.553,30.874-16.998c8.769-7.03,15.996-15.791,21.231-25.737
				c3.138-6.097,5.369-12.62,6.622-19.362h20.83c0.874,1.539,1.986,2.93,3.294,4.122c16.265,14.396,47.454,38.545,73.626,38.545
				c36.233,0,65.707-22.963,65.707-51.2c0-28.237-29.474-51.2-65.707-51.2C351.855,273.067,320.666,297.216,304.393,311.612z
				 M426.667,324.267c0,18.825-21.82,34.133-48.64,34.133c-14.78,0-38.076-12.8-62.293-34.005
				c24.218-21.461,47.514-34.261,62.293-34.261C404.847,290.133,426.667,305.442,426.667,324.267z"/>
			<path d="M351.002,319.795c-1.186,1.928-1.558,4.249-1.033,6.451c0.525,2.202,1.903,4.106,3.832,5.291
				c9.259,5.885,19.862,9.321,30.814,9.984c2.607,0.011,5.207-0.295,7.74-0.913c6.748-1.656,12.513-6.025,15.932-12.075
				c1.717-2.645,1.835-6.021,0.308-8.78c-1.528-2.759-4.452-4.45-7.605-4.398s-6.02,1.838-7.457,4.645
				c-1.104,2.069-3.054,3.555-5.342,4.07c-9.04,0.627-18.021-1.864-25.446-7.057C358.733,314.54,353.476,315.785,351.002,319.795z"
				/>
		</g>
	</g>
</g>
<g>
</g>
<g>
</g>
<g>
</g>
<g>
</g>
<g>
</g>
<g>
</g>
<g>
</g>
<g>
</g>
<g>
</g>
<g>
</g>
<g>
</g>
<g>
</g>
<g>
</g>
<g>
</g>
<g>
</g>
</svg>
